# xmcd CD database file
#
# Track frame offsets:
#	150
#	11015
#	20445
#	31497
#	41512
#	50747
#	61700
#	75687
#	86490
#	103245
#	127050
#	141722
#	157387
#	173945
#	193937
#	210782
#
# Disc length: 2949 seconds
#
# Revision: 0
# Processed by: cddbd v1.4PL0 Copyright (c) Steve Scherf et al.
# Submitted via: CDex 1.50beta10
#
DISCID=e60b8310
DTITLE=Jerry McCain - Good Stuff
DYEAR=1999
DGENRE=Blues
TTITLE0=She's Tough
TTITLE1=Steady
TTITLE2=What About You
TTITLE3=Rough Stuff
TTITLE4=Ting-Tang-Tagalu
TTITLE5=Love Me Right
TTITLE6=Welfare Cadillac Blues
TTITLE7=Funky Down Easy
TTITLE8=Something About My Baby
TTITLE9=Looks Like I Can See Everybody
TTITLE10=I'll Come Running Back For More
TTITLE11=Blues Singing Man
TTITLE12=Love Whip
TTITLE13=She Tore Me Up
TTITLE14=53 Year Old Man
TTITLE15=Pussycat A-Go-Go
EXTD=YEAR: 1999
EXTT0=
EXTT1=
EXTT2=
EXTT3=
EXTT4=
EXTT5=
EXTT6=
EXTT7=
EXTT8=
EXTT9=
EXTT10=
EXTT11=
EXTT12=
EXTT13=
EXTT14=
EXTT15=
PLAYORDER=
